PathFileType	4	(X/Y/Z)	/Users/itak/Documents/Research/Walk-IL/dataset/trc/00480_00167.trc
DataRate	CameraRate	NumFrames	NumMarkers	Units	OrigDataRate	OrigDataStartFrame	OrigNumFrames
100.000000	100.000000	4	53	mm	100.000000	306	613
Frame#	Time	RPSI			LPSI			L3			STRN			T10			C7			CLAV			RBAK			LBAK			LSHO			LUPA			LAEL			LAOL			LWTS			LWPS			LFRA			LIFD			LHPS			LHTS			RSHO			RUPA			RAEL			RAOL			RWTS			RWPS			RFRA			RIFD			RHTS			RHPS			RBHD			LFHD			RFHD			LBHD			LHIP			RHIP			RASI			LASI			LKNE			LTHI			LANK			LTIP			LTOE			LMT1			LMT5			LHEE			RKNE			RTHI			RANK			RTIP			RTOE			RMT1			RMT5			RHEE			
		X1	Y1	Z1	X2	Y2	Z2	X3	Y3	Z3	X4	Y4	Z4	X5	Y5	Z5	X6	Y6	Z6	X7	Y7	Z7	X8	Y8	Z8	X9	Y9	Z9	X10	Y10	Z10	X11	Y11	Z11	X12	Y12	Z12	X13	Y13	Z13	X14	Y14	Z14	X15	Y15	Z15	X16	Y16	Z16	X17	Y17	Z17	X18	Y18	Z18	X19	Y19	Z19	X20	Y20	Z20	X21	Y21	Z21	X22	Y22	Z22	X23	Y23	Z23	X24	Y24	Z24	X25	Y25	Z25	X26	Y26	Z26	X27	Y27	Z27	X28	Y28	Z28	X29	Y29	Z29	X30	Y30	Z30	X31	Y31	Z31	X32	Y32	Z32	X33	Y33	Z33	X34	Y34	Z34	X35	Y35	Z35	X36	Y36	Z36	X37	Y37	Z37	X38	Y38	Z38	X39	Y39	Z39	X40	Y40	Z40	X41	Y41	Z41	X42	Y42	Z42	X43	Y43	Z43	X44	Y44	Z44	X45	Y45	Z45	X46	Y46	Z46	X47	Y47	Z47	X48	Y48	Z48	X49	Y49	Z49	X50	Y50	Z50	X51	Y51	Z51	X52	Y52	Z52	X53	Y53	Z53	

307	3.06	336.2026062011719	994.56005859375	-109.0766830444336	200.1325531005859	963.7390747070312	-75.19197082519531	262.5787963867188	1084.948486328125	-120.7920455932617	139.0504455566406	1241.738891601562	-395.3313903808594	245.1728973388672	1208.029052734375	-118.0722122192383	197.9328155517578	1464.377807617188	-208.3767700195312	131.3264617919922	1357.488159179688	-368.1170349121094	323.30322265625	1365.072143554688	-178.3770904541016	121.958122253418	1409.053833007812	-136.7034301757812	13.18092441558838	1415.881958007812	-206.7998657226562	-70.44762420654297	1292.294799804688	-174.8978271484375	-87.96683502197266	1083.85693359375	-237.4483337402344	-22.17206573486328	1049.396240234375	-162.9301910400391	30.97372436523438	1013.953430175781	-409.7015686035156	-9.355247497558594	952.9365844726562	-397.2645874023438	-62.8145751953125	1030.72998046875	-307.9736938476562	84.30340576171875	909.5463256835938	-518.8942260742188	21.50596809387207	906.3740844726562	-449.9518737792969	54.73632049560547	965.5226440429688	-476.7952575683594	322.81591796875	1445.583862304688	-330.6009216308594	409.3077087402344	1400.562377929688	-338.4828796386719	518.187744140625	1129.762939453125	-336.7348937988281	502.3688354492188	1114.54638671875	-272.8003234863281	490.4531860351562	910.9685668945312	-398.682861328125	566.4124755859375	914.136474609375	-353.7886657714844	539.590087890625	1074.291870117188	-337.8457336425781	537.4013671875	765.6185913085938	-412.1526489257812	521.4280395507812	823.001220703125	-423.279296875	581.66650390625	830.0501708984375	-373.0761108398438	159.6211700439453	1666.061157226562	-358.0435791015625	-30.66671180725098	1612.436889648438	-298.696533203125	32.50618362426758	1647.941650390625	-407.7228698730469	86.56999969482422	1625.804443359375	-201.0305480957031	81.6729736328125	829.667236328125	-189.7703552246094	466.0940551757812	920.689208984375	-260.1086120605469	370.1493835449219	939.9266967773438	-343.1603393554688	126.1687774658203	883.7489013671875	-296.3769226074219	205.724853515625	435.7338562011719	-301.8924255371094	142.278564453125	577.550537109375	-287.5763854980469	301.4540405273438	36.38348770141602	-187.4105834960938	231.5965423583984	282.453857421875	-281.5399780273438	444.5903015136719	46.43013000488281	-384.29833984375	433.35888671875	72.75701904296875	-304.9282531738281	336.7586669921875	34.38259124755859	-343.4830322265625	348.6328125	64.42231750488281	-131.337158203125	566.3599243164062	561.8619384765625	-335.2502746582031	499.5050048828125	800.571044921875	-325.1372375488281	834.8126831054688	411.1972045898438	-39.48239517211914	661.2826538085938	479.8535461425781	-263.1827087402344	838.004638671875	195.6777954101562	-44.97867965698242	793.5862426757812	248.2703857421875	-21.3918342590332	875.61474609375	291.5430603027344	-75.87652587890625	795.715087890625	460.2851257324219	5.490720272064209	
308	3.07	345.3301696777344	995.7244873046875	-115.2831115722656	211.4611053466797	965.7378540039062	-73.53716278076172	271.5204162597656	1086.331909179688	-123.1270751953125	136.4224395751953	1242.0029296875	-392.51318359375	254.408447265625	1209.569946289062	-120.1814346313477	204.0196380615234	1465.48193359375	-209.5281372070312	130.7385559082031	1358.003540039062	-365.7787170410156	329.9845275878906	1365.834838867188	-184.2612762451172	130.8337860107422	1410.926635742188	-134.5487213134766	19.48338317871094	1417.826293945312	-200.2900695800781	-63.43649291992188	1294.94873046875	-164.8486480712891	-83.93307495117188	1086.335571289062	-225.7501525878906	-16.29240226745605	1051.901000976562	-152.986328125	29.95402908325195	1014.523559570312	-401.01318359375	-10.89648628234863	954.0770263671875	-387.0107116699219	-61.19751358032227	1032.698608398438	-296.6768798828125	79.5655517578125	907.7240600585938	-510.0462951660156	18.22756004333496	906.4971313476562	-439.8758850097656	51.78972625732422	964.749755859375	-468.0777587890625	323.7216491699219	1445.854125976562	-336.4051513671875	409.8006591796875	1400.9736328125	-347.1224975585938	519.5805053710938	1130.849487304688	-346.2305908203125	505.3323669433594	1116.158813476562	-281.7743530273438	493.137451171875	910.5764770507812	-405.1752319335938	569.5186767578125	915.5845336914062	-361.1072082519531	541.3804931640625	1075.575073242188	-347.2443542480469	542.522705078125	765.406005859375	-416.0135498046875	525.1497802734375	822.121337890625	-428.0448608398438	585.9743041992188	831.4827270507812	-378.7651977539062	160.8344573974609	1666.173095703125	-358.8943176269531	-27.89064598083496	1613.307861328125	-294.1323547363281	32.46528625488281	1647.814453125	-405.0763854980469	91.88596343994141	1627.336303710938	-199.6894226074219	86.37985229492188	830.9849243164062	-179.4398040771484	466.2747802734375	919.9830322265625	-272.54443359375	365.8307800292969	938.9519653320312	-350.3283386230469	124.4038543701172	884.2062377929688	-289.3841247558594	203.5675811767578	435.3329467773438	-292.912109375	140.8206787109375	577.4931030273438	-276.62939453125	309.4013366699219	35.7471809387207	-184.6230773925781	231.5493316650391	282.1397399902344	-273.4233093261719	434.8110656738281	50.32981491088867	-391.8164672851562	430.8977661132812	74.57346343994141	-311.6857604980469	332.6439514160156	33.76974868774414	-342.6463623046875	360.5531921386719	64.260009765625	-132.5343475341797	559.5253295898438	559.38330078125	-349.4112854003906	494.96728515625	798.7440185546875	-338.1454162597656	842.5301513671875	406.4817504882812	-67.51699829101562	657.55908203125	476.9333801269531	-282.0859069824219	840.3320922851562	190.9874114990234	-74.78753662109375	798.3885498046875	244.4423980712891	-47.98920822143555	878.9277954101562	286.2013854980469	-106.7028732299805	806.7937622070312	456.1895141601562	-20.37283515930176	
309	3.08	353.9658813476562	996.5711059570312	-121.8738250732422	222.7449951171875	967.4053344726562	-72.43386840820312	280.1911010742188	1087.400512695312	-125.8426666259766	133.8689575195312	1242.1005859375	-389.4792785644531	263.4155883789062	1210.7529296875	-122.5642395019531	210.0054931640625	1466.25244140625	-210.7272338867188	130.2041625976562	1358.297485351562	-363.2804260253906	336.2733154296875	1366.282348632812	-190.1954803466797	139.6577758789062	1412.485229492188	-132.6173095703125	25.95395469665527	1419.569091796875	-193.9315032958984	-56.17018127441406	1297.43115234375	-155.0496063232422	-79.57015228271484	1088.6171875	-214.2172393798828	-10.13629722595215	1054.245239257812	-143.2725830078125	29.01124382019043	1014.701538085938	-392.4067993164062	-12.2938404083252	954.88525390625	-376.6504211425781	-59.34695053100586	1034.38623046875	-285.4138793945312	74.71456909179688	905.1796875	-500.9430847167969	14.96401786804199	906.1668090820312	-429.5029602050781	48.83985900878906	963.3994750976562	-459.3287048339844	324.330810546875	1445.86669921875	-342.0097045898438	409.9414367675781	1401.199829101562	-355.5047912597656	520.8499145507812	1131.786743164062	-355.4577941894531	508.2393188476562	1117.596435546875	-290.5361938476562	495.3655700683594	910.1925659179688	-411.6876525878906	572.2249755859375	916.8228759765625	-368.6408996582031	542.9755249023438	1076.687133789062	-356.4801330566406	546.8244018554688	765.1671752929688	-420.1147155761719	528.2789306640625	821.3172607421875	-433.0191040039062	589.6148681640625	832.6849975585938	-384.7155151367188	162.1182861328125	1665.960571289062	-359.61328125	-24.98596954345703	1613.967041015625	-289.6929321289062	32.63207244873047	1647.434814453125	-402.3924255371094	97.13082885742188	1628.582885742188	-198.3965911865234	91.71511840820312	832.0205688476562	-169.3166351318359	465.66796875	919.0308227539062	-284.8573913574219	361.0673828125	937.7684326171875	-357.0780029296875	123.1151885986328	884.3833618164062	-282.18994140625	202.3913269042969	434.6407470703125	-283.1568908691406	140.4376678466797	577.1417236328125	-265.1860961914062	317.6004333496094	34.75862121582031	-182.1492309570312	232.3385925292969	281.5088500976562	-264.6619873046875	424.1625061035156	54.33536911010742	-398.5640258789062	427.7179260253906	76.25112152099609	-318.2140502929688	328.12939453125	33.28818511962891	-341.2983703613281	372.6822814941406	63.31369400024414	-134.4041290283203	552.0135498046875	556.6842651367188	-363.1263732910156	489.7122192382812	796.7113647460938	-350.7713012695312	848.7055053710938	400.7887878417969	-95.83514404296875	652.867431640625	473.5918884277344	-300.7430419921875	840.4069213867188	185.4465942382812	-105.0261383056641	801.2722778320312	239.7316131591797	-75.10209655761719	880.3302001953125	279.9336547851562	-137.6668853759766	816.47802734375	451.0896911621094	-46.68190002441406	
310	3.09	362.0942077636719	997.043701171875	-128.8112487792969	233.9393920898438	968.6957397460938	-71.88145446777344	288.5459899902344	1088.083374023438	-128.9243927001953	131.3911743164062	1241.987426757812	-386.2505187988281	272.1604614257812	1211.496215820312	-125.2143020629883	215.8737487792969	1466.624755859375	-211.9743041992188	129.7184448242188	1358.31787109375	-360.6366271972656	342.1695251464844	1366.331665039062	-196.1598663330078	148.4231872558594	1413.668334960938	-130.8966827392578	32.57271575927734	1421.06103515625	-187.7237854003906	-48.67658996582031	1299.680419921875	-145.4843139648438	-74.91580963134766	1090.642578125	-202.8361053466797	-3.722003221511841	1056.368041992188	-133.7988128662109	28.10125160217285	1014.506530761719	-383.8794555664062	-13.52116298675537	955.3527221679688	-366.2106018066406	-57.28888702392578	1035.76806640625	-274.19921875	69.77135467529297	902.0614624023438	-491.605224609375	11.76387596130371	905.4298095703125	-418.865966796875	45.87186050415039	961.5575561523438	-450.5575561523438	324.6531066894531	1445.55908203125	-347.4010314941406	409.7402954101562	1401.172973632812	-363.6163330078125	522.015380859375	1132.522338867188	-364.4649047851562	511.1351928710938	1118.80859375	-299.1294250488281	497.1102600097656	909.7542724609375	-418.1993103027344	574.5452880859375	917.7760620117188	-376.4423828125	544.3977661132812	1077.570068359375	-365.5970764160156	550.2498168945312	764.8209838867188	-424.4793701171875	530.7281494140625	820.504150390625	-438.194091796875	592.5745849609375	833.5692138671875	-390.9939880371094	163.4744567871094	1665.375732421875	-360.2039184570312	-21.96567535400391	1614.364624023438	-285.3695373535156	32.98114013671875	1646.754516601562	-399.6720275878906	102.3029632568359	1629.4990234375	-197.1325073242188	97.66706085205078	832.7142944335938	-159.449951171875	464.2708129882812	917.76806640625	-297.0238342285156	355.8941955566406	936.299560546875	-363.3666687011719	122.3053131103516	884.2109985351562	-274.8380126953125	202.3381958007812	433.6307983398438	-272.7865295410156	141.2340545654297	576.42822265625	-253.3320770263672	325.8038024902344	33.46617889404297	-179.9930572509766	234.0284271240234	280.5469055175781	-255.4430694580078	412.9407043457031	58.15337753295898	-404.2869567871094	423.8919067382812	77.69432067871094	-324.3002624511719	323.299560546875	32.97123336791992	-339.3380126953125	384.7268676757812	61.53409957885742	-136.8682861328125	543.8690795898438	553.7191772460938	-376.3897094726562	483.7821655273438	794.4226684570312	-362.9892883300781	853.2963256835938	394.1788940429688	-124.3943634033203	647.236083984375	469.7894592285156	-319.12255859375	838.3726806640625	179.1751556396484	-135.5408935546875	802.3569946289062	234.1731262207031	-102.6178665161133	879.85400390625	272.8748779296875	-168.7136840820312	824.7005615234375	444.9962158203125	-73.40132904052734	
